<svg width="151" height="114" viewBox="0 0 151 114" fill="none" xmlns="http://www.w3.org/2000/svg">
<g clip-path="url(#clip0_101_561)">
<path d="M121.779 46.2697C120.254 22.7145 103.832 0 73.7143 0C46.1679 0 24.925 20.4238 23.8 47.6805C8.72857 52.3581 0.5 68.4463 0.5 80.1562C0.5 98.1861 15.5214 114 32.6429 114H55.8571C56.3307 114 56.7849 113.812 57.1198 113.478C57.4547 113.144 57.6429 112.691 57.6429 112.219C57.6429 111.746 57.4547 111.293 57.1198 110.959C56.7849 110.625 56.3307 110.438 55.8571 110.438H32.6429C17.4214 110.438 4.07143 96.2872 4.07143 80.1562C4.07143 69.2871 13.6214 49.875 32.6429 49.875H38C38.4736 49.875 38.9278 49.6873 39.2627 49.3533C39.5976 49.0192 39.7857 48.5662 39.7857 48.0938C39.7857 47.6213 39.5976 47.1683 39.2627 46.8342C38.9278 46.5002 38.4736 46.3125 38 46.3125H32.6429C30.825 46.3125 29.1071 46.5156 27.4321 46.8077C28.8321 25.4683 45.0929 3.5625 73.7143 3.5625C104.386 3.5625 118.357 27.5702 118.357 49.875V55.2188C118.357 55.6912 118.545 56.1442 118.88 56.4783C119.215 56.8123 119.669 57 120.143 57C120.616 57 121.071 56.8123 121.406 56.4783C121.74 56.1442 121.929 55.6912 121.929 55.2188V49.8429C132.711 51.0221 146.929 62.5646 146.929 80.1562C146.929 93.7864 133.746 110.438 118.357 110.438H91.5714C80.0071 110.438 75.5 105.942 75.5 94.4062V45.5394L90.0643 60.0388C90.2288 60.2092 90.4256 60.3451 90.6434 60.4388C90.8611 60.5324 91.0953 60.5819 91.3324 60.5843C91.5695 60.5866 91.8047 60.5419 92.0243 60.4526C92.2439 60.3634 92.4434 60.2314 92.6113 60.0644C92.7792 59.8974 92.9121 59.6987 93.0022 59.48C93.0923 59.2612 93.1378 59.0267 93.1361 58.7902C93.1344 58.5537 93.0854 58.3199 92.9922 58.1024C92.8989 57.885 92.7632 57.6882 92.5929 57.5237L76.6607 41.6634C74.5393 39.5544 72.8929 39.5544 70.775 41.6634L54.8429 57.5237C54.5176 57.8596 54.3376 58.3096 54.3417 58.7766C54.3457 59.2437 54.5335 59.6904 54.8646 60.0207C55.1957 60.3509 55.6436 60.5383 56.1118 60.5423C56.58 60.5464 57.0311 60.3668 57.3679 60.0424L71.9286 45.5394V94.4062C71.9286 107.958 77.9857 114 91.5714 114H118.357C135.668 114 150.5 95.3895 150.5 80.1562C150.5 61.7488 135.418 47.3527 121.779 46.2697Z" fill="#E0E0E0"/>
</g>
<defs>
<clipPath id="clip0_101_561">
<rect width="150" height="114" fill="white" transform="translate(0.5)"/>
</clipPath>
</defs>
</svg>
