<svg width="16" height="16" viewBox="0 0 16 16" fill="none" xmlns="http://www.w3.org/2000/svg">
<path d="M13 8.293V7H12V8.5C12 8.6326 12.0527 8.75975 12.1465 8.8535L13.5 10.207V11H2.5V10.207L3.8535 8.8535C3.94727 8.75975 3.99997 8.6326 4 8.5V6.5C3.99861 5.7974 4.18265 5.10687 4.53354 4.49816C4.88444 3.88945 5.38975 3.38412 5.99845 3.0332C6.60715 2.68229 7.29767 2.49822 8.00027 2.49959C8.70288 2.50096 9.39267 2.68772 10 3.041V1.9235C9.52405 1.71276 9.01782 1.57844 8.5 1.5255V0.5H7.5V1.525C6.26729 1.65047 5.12488 2.22856 4.29368 3.14749C3.46249 4.06642 3.00155 5.26092 3 6.5V8.293L1.6465 9.6465C1.55273 9.74025 1.50003 9.8674 1.5 10V11.5C1.5 11.6326 1.55268 11.7598 1.64645 11.8536C1.74021 11.9473 1.86739 12 2 12H5.5V12.5C5.5 13.163 5.76339 13.7989 6.23223 14.2678C6.70107 14.7366 7.33696 15 8 15C8.66304 15 9.29893 14.7366 9.76777 14.2678C10.2366 13.7989 10.5 13.163 10.5 12.5V12H14C14.1326 12 14.2598 11.9473 14.3536 11.8536C14.4473 11.7598 14.5 11.6326 14.5 11.5V10C14.5 9.8674 14.4473 9.74025 14.3535 9.6465L13 8.293ZM9.5 12.5C9.5 12.8978 9.34196 13.2794 9.06066 13.5607C8.77936 13.842 8.39782 14 8 14C7.60218 14 7.22064 13.842 6.93934 13.5607C6.65804 13.2794 6.5 12.8978 6.5 12.5V12H9.5V12.5Z" fill="#BDBDBD"/>
<path d="M13 6C14.1046 6 15 5.10457 15 4C15 2.89543 14.1046 2 13 2C11.8954 2 11 2.89543 11 4C11 5.10457 11.8954 6 13 6Z" fill="#FB0970"/>
</svg>
